<mxfile host="Electron" agent="Mozilla/5.0 (Windows NT 10.0; Win64; x64) AppleWebKit/537.36 (KHTML, like Gecko) draw.io/28.1.2 Chrome/138.0.7204.243 Electron/37.4.0 Safari/537.36" version="28.1.2">
  <diagram name="Page-1" id="4zMnxlEQrNKTE3p7n3WV">
    <mxGraphModel dx="812" dy="698" grid="1" gridSize="10" guides="1" tooltips="1" connect="1" arrows="1" fold="1" page="1" pageScale="1" pageWidth="850" pageHeight="1100" math="0" shadow="0">
      <root>
        <mxCell id="0" />
        <mxCell id="1" parent="0" />
        <mxCell id="zna0TmSRMHzPJuzXg0yy-23" style="edgeStyle=orthogonalEdgeStyle;rounded=0;orthogonalLoop=1;jettySize=auto;html=1;exitX=0.5;exitY=1;exitDx=0;exitDy=0;entryX=0.5;entryY=0;entryDx=0;entryDy=0;strokeWidth=4;fontFamily=Lucida Console;fontSize=13;fontStyle=1" parent="1" source="zna0TmSRMHzPJuzXg0yy-1" target="zna0TmSRMHzPJuzXg0yy-12" edge="1">
          <mxGeometry relative="1" as="geometry" />
        </mxCell>
        <mxCell id="zna0TmSRMHzPJuzXg0yy-1" value="V Mobile&lt;div&gt;(CSV Extract)&lt;/div&gt;" style="rounded=0;whiteSpace=wrap;html=1;strokeWidth=4;fontFamily=Lucida Console;fontSize=13;fontStyle=1" parent="1" vertex="1">
          <mxGeometry x="210" y="60" width="120" height="60" as="geometry" />
        </mxCell>
        <mxCell id="zna0TmSRMHzPJuzXg0yy-24" style="edgeStyle=orthogonalEdgeStyle;rounded=0;orthogonalLoop=1;jettySize=auto;html=1;exitX=0.5;exitY=1;exitDx=0;exitDy=0;endArrow=none;endFill=0;strokeWidth=4;fontFamily=Lucida Console;fontSize=13;fontStyle=1" parent="1" source="zna0TmSRMHzPJuzXg0yy-2" edge="1">
          <mxGeometry relative="1" as="geometry">
            <mxPoint x="460" y="160" as="targetPoint" />
          </mxGeometry>
        </mxCell>
        <mxCell id="zna0TmSRMHzPJuzXg0yy-2" value="BlueMobile&lt;div&gt;(CSV Extract)&lt;/div&gt;" style="rounded=0;whiteSpace=wrap;html=1;strokeWidth=4;fontFamily=Lucida Console;fontSize=13;fontStyle=1" parent="1" vertex="1">
          <mxGeometry x="400" y="60" width="120" height="60" as="geometry" />
        </mxCell>
        <mxCell id="zna0TmSRMHzPJuzXg0yy-25" style="edgeStyle=orthogonalEdgeStyle;rounded=0;orthogonalLoop=1;jettySize=auto;html=1;exitX=0.5;exitY=1;exitDx=0;exitDy=0;endArrow=none;endFill=0;strokeWidth=4;fontFamily=Lucida Console;fontSize=13;fontStyle=1" parent="1" source="zna0TmSRMHzPJuzXg0yy-3" edge="1">
          <mxGeometry relative="1" as="geometry">
            <mxPoint x="460" y="160" as="targetPoint" />
            <Array as="points">
              <mxPoint x="660" y="160" />
            </Array>
          </mxGeometry>
        </mxCell>
        <mxCell id="zna0TmSRMHzPJuzXg0yy-3" value="ArrowMobile&lt;div&gt;(CSV Extract)&lt;/div&gt;" style="rounded=0;whiteSpace=wrap;html=1;strokeWidth=4;fontFamily=Lucida Console;fontSize=13;fontStyle=1" parent="1" vertex="1">
          <mxGeometry x="600" y="60" width="120" height="60" as="geometry" />
        </mxCell>
        <mxCell id="zna0TmSRMHzPJuzXg0yy-26" style="edgeStyle=orthogonalEdgeStyle;rounded=0;orthogonalLoop=1;jettySize=auto;html=1;exitX=0.5;exitY=1;exitDx=0;exitDy=0;entryX=0.5;entryY=0;entryDx=0;entryDy=0;strokeWidth=4;fontFamily=Lucida Console;fontSize=13;fontStyle=1" parent="1" source="zna0TmSRMHzPJuzXg0yy-12" target="zna0TmSRMHzPJuzXg0yy-27" edge="1">
          <mxGeometry relative="1" as="geometry">
            <mxPoint x="460" y="320" as="targetPoint" />
          </mxGeometry>
        </mxCell>
        <mxCell id="zna0TmSRMHzPJuzXg0yy-12" value="Data Ingestion&lt;div&gt;(Python Script)&lt;/div&gt;" style="whiteSpace=wrap;html=1;sketch=0;pointerEvents=1;resizable=0;rounded=0;strokeWidth=4;fontFamily=Lucida Console;fontSize=13;fontStyle=1" parent="1" vertex="1">
          <mxGeometry x="400" y="200" width="120" height="60" as="geometry" />
        </mxCell>
        <mxCell id="zna0TmSRMHzPJuzXg0yy-20" value="Excel&lt;div&gt;(Weekly Report)&lt;/div&gt;" style="rounded=0;whiteSpace=wrap;html=1;strokeWidth=4;fontFamily=Lucida Console;fontSize=13;fontStyle=1" parent="1" vertex="1">
          <mxGeometry x="210" y="550" width="120" height="60" as="geometry" />
        </mxCell>
        <mxCell id="zna0TmSRMHzPJuzXg0yy-36" style="edgeStyle=orthogonalEdgeStyle;rounded=0;orthogonalLoop=1;jettySize=auto;html=1;exitX=0.5;exitY=0;exitDx=0;exitDy=0;endArrow=none;endFill=0;startArrow=classic;startFill=1;strokeWidth=4;fontFamily=Lucida Console;fontSize=13;fontStyle=1" parent="1" source="zna0TmSRMHzPJuzXg0yy-22" edge="1">
          <mxGeometry relative="1" as="geometry">
            <mxPoint x="460" y="520" as="targetPoint" />
            <Array as="points">
              <mxPoint x="660" y="520" />
            </Array>
          </mxGeometry>
        </mxCell>
        <mxCell id="zna0TmSRMHzPJuzXg0yy-22" value="PowerPoint&lt;div&gt;(Final Presentation)&lt;/div&gt;" style="rounded=0;whiteSpace=wrap;html=1;strokeWidth=4;fontFamily=Lucida Console;fontSize=13;fontStyle=1" parent="1" vertex="1">
          <mxGeometry x="600" y="540" width="120" height="60" as="geometry" />
        </mxCell>
        <mxCell id="zna0TmSRMHzPJuzXg0yy-27" value="Data Processing&lt;div&gt;(Python Script)&lt;/div&gt;" style="swimlane;fontStyle=1;childLayout=stackLayout;horizontal=1;startSize=30;horizontalStack=0;resizeParent=1;resizeParentMax=0;resizeLast=0;collapsible=1;marginBottom=0;whiteSpace=wrap;html=1;strokeWidth=4;fontFamily=Lucida Console;fontSize=12;" parent="1" vertex="1">
          <mxGeometry x="400" y="330" width="120" height="150" as="geometry">
            <mxRectangle x="390" y="320" width="130" height="40" as="alternateBounds" />
          </mxGeometry>
        </mxCell>
        <mxCell id="zna0TmSRMHzPJuzXg0yy-28" value="Data Collection" style="text;strokeColor=none;fillColor=none;align=left;verticalAlign=middle;spacingLeft=4;spacingRight=4;overflow=hidden;points=[[0,0.5],[1,0.5]];portConstraint=eastwest;rotatable=0;whiteSpace=wrap;html=1;strokeWidth=4;fontFamily=Lucida Console;fontSize=12;fontStyle=1" parent="zna0TmSRMHzPJuzXg0yy-27" vertex="1">
          <mxGeometry y="30" width="120" height="30" as="geometry" />
        </mxCell>
        <mxCell id="zna0TmSRMHzPJuzXg0yy-29" value="Consolidation" style="text;strokeColor=none;fillColor=none;align=left;verticalAlign=middle;spacingLeft=4;spacingRight=4;overflow=hidden;points=[[0,0.5],[1,0.5]];portConstraint=eastwest;rotatable=0;whiteSpace=wrap;html=1;strokeWidth=4;fontFamily=Lucida Console;fontSize=12;fontStyle=1" parent="zna0TmSRMHzPJuzXg0yy-27" vertex="1">
          <mxGeometry y="60" width="120" height="30" as="geometry" />
        </mxCell>
        <mxCell id="zna0TmSRMHzPJuzXg0yy-30" value="Master Records" style="text;strokeColor=none;fillColor=none;align=left;verticalAlign=middle;spacingLeft=4;spacingRight=4;overflow=hidden;points=[[0,0.5],[1,0.5]];portConstraint=eastwest;rotatable=0;whiteSpace=wrap;html=1;strokeWidth=4;fontFamily=Lucida Console;fontSize=12;fontStyle=1" parent="zna0TmSRMHzPJuzXg0yy-27" vertex="1">
          <mxGeometry y="90" width="120" height="30" as="geometry" />
        </mxCell>
        <mxCell id="zna0TmSRMHzPJuzXg0yy-31" value="Weekly Aggregates" style="text;strokeColor=none;fillColor=none;align=left;verticalAlign=middle;spacingLeft=4;spacingRight=4;overflow=hidden;points=[[0,0.5],[1,0.5]];portConstraint=eastwest;rotatable=0;whiteSpace=wrap;html=1;strokeWidth=4;fontFamily=Lucida Console;fontSize=12;fontStyle=1" parent="zna0TmSRMHzPJuzXg0yy-27" vertex="1">
          <mxGeometry y="120" width="120" height="30" as="geometry" />
        </mxCell>
        <mxCell id="zna0TmSRMHzPJuzXg0yy-35" value="" style="endArrow=classic;html=1;rounded=0;exitX=0.5;exitY=0.967;exitDx=0;exitDy=0;exitPerimeter=0;entryX=0.5;entryY=0;entryDx=0;entryDy=0;strokeWidth=4;fontFamily=Lucida Console;fontSize=13;fontStyle=1" parent="1" source="zna0TmSRMHzPJuzXg0yy-31" target="zna0TmSRMHzPJuzXg0yy-20" edge="1">
          <mxGeometry width="50" height="50" relative="1" as="geometry">
            <mxPoint x="400" y="330" as="sourcePoint" />
            <mxPoint x="270" y="530" as="targetPoint" />
            <Array as="points">
              <mxPoint x="460" y="520" />
              <mxPoint x="270" y="520" />
            </Array>
          </mxGeometry>
        </mxCell>
      </root>
    </mxGraphModel>
  </diagram>
</mxfile>
